{"title":"The Art Of The Steal 2013 English Movies DVDRip XViD ESubs +Samp","uid":9587460,"size":737979981,"categoryP":"video","categoryS":"movies","magnet":"?xt=urn:btih:69a3a3d963f1ebdc54114c868756ce3339bd55d2&amp;dn=The+Art+Of+The+Steal+2013+English+Movies+DVDRip+XViD+ESubs+%2BSamp&amp;tr=udp%3A%2F%2Ftracker.openbittorrent.com%3A80&amp;tr=udp%3A%2F%2Fopen.demonii.com%3A1337&amp;tr=udp%3A%2F%2Ftracker.coppersurfer.tk%3A6969&amp;tr=udp%3A%2F%2Fexodus.desync.com%3A6969","seeders":1,"leechers":0,"uploader":"basicssom","files":3,"time":1391838395,"description":" &lt;a href=&quot;http://s5.postimg.org/hgeuxszk7/logo.png&quot; rel=&quot;nofollow&quot; target=&quot;_NEW&quot;&gt;http://s5.postimg.org/hgeuxszk7/logo.png&lt;/a&gt;\n\nThe Art Of The Steal 2013 English Movies DVDRip XViD ESubs +Sample ~ â˜»rDXâ˜»\n\nPlease check SCREEN SHOTS first :\n &lt;a href=&quot;\nhttp://moviesreview.co.nr/2014/2/TheArtOfTheSteal/1.html&quot; rel=&quot;nofollow&quot; target=&quot;_NEW&quot;&gt;\nhttp://moviesreview.co.nr/2014/2/TheArtOfTheSteal/1.html&lt;/a&gt; &lt;a href=&quot;\nhttp://moviesreview.co.nr/2014/2/TheArtOfTheSteal/2.html&quot; rel=&quot;nofollow&quot; target=&quot;_NEW&quot;&gt;\nhttp://moviesreview.co.nr/2014/2/TheArtOfTheSteal/2.html&lt;/a&gt; &lt;a href=&quot;\nhttp://moviesreview.co.nr/2014/2/TheArtOfTheSteal/3.html&quot; rel=&quot;nofollow&quot; target=&quot;_NEW&quot;&gt;\nhttp://moviesreview.co.nr/2014/2/TheArtOfTheSteal/3.html&lt;/a&gt; &lt;a href=&quot;\nhttp://moviesreview.co.nr/2014/2/TheArtOfTheSteal/4.html&quot; rel=&quot;nofollow&quot; target=&quot;_NEW&quot;&gt;\nhttp://moviesreview.co.nr/2014/2/TheArtOfTheSteal/4.html&lt;/a&gt; &lt;a href=&quot;\nhttp://moviesreview.co.nr/2014/2/TheArtOfTheSteal/5.html&quot; rel=&quot;nofollow&quot; target=&quot;_NEW&quot;&gt;\nhttp://moviesreview.co.nr/2014/2/TheArtOfTheSteal/5.html&lt;/a&gt; &lt;a href=&quot;\nhttp://moviesreview.co.nr/2014/2/TheArtOfTheSteal/6.html&quot; rel=&quot;nofollow&quot; target=&quot;_NEW&quot;&gt;\nhttp://moviesreview.co.nr/2014/2/TheArtOfTheSteal/6.html&lt;/a&gt; &lt;a href=&quot;\nhttp://moviesreview.co.nr/2014/2/TheArtOfTheSteal/7.html&quot; rel=&quot;nofollow&quot; target=&quot;_NEW&quot;&gt;\nhttp://moviesreview.co.nr/2014/2/TheArtOfTheSteal/7.html&lt;/a&gt; &lt;a href=&quot;\nhttp://moviesreview.co.nr/2014/2/TheArtOfTheSteal/8.html&quot; rel=&quot;nofollow&quot; target=&quot;_NEW&quot;&gt;\nhttp://moviesreview.co.nr/2014/2/TheArtOfTheSteal/8.html&lt;/a&gt; &lt;a href=&quot;\nhttp://moviesreview.co.nr/2014/2/TheArtOfTheSteal/9.html&quot; rel=&quot;nofollow&quot; target=&quot;_NEW&quot;&gt;\nhttp://moviesreview.co.nr/2014/2/TheArtOfTheSteal/9.html&lt;/a&gt; &lt;a href=&quot;\nhttp://moviesreview.co.nr/2014/2/TheArtOfTheSteal/10.html&quot; rel=&quot;nofollow&quot; target=&quot;_NEW&quot;&gt;\nhttp://moviesreview.co.nr/2014/2/TheArtOfTheSteal/10.html&lt;/a&gt;\n\nAll rDX torrents are Seeding From the 1Gbps Seedbox 24X7\n &lt;a href=&quot;\nhttp://istoreimg.com/upload/big/2014/02/08/52f5a3da36981.jpg&quot; rel=&quot;nofollow&quot; target=&quot;_NEW&quot;&gt;\nhttp://istoreimg.com/upload/big/2014/02/08/52f5a3da36981.jpg&lt;/a&gt;\n &lt;a href=&quot;\nhttp://istoreimg.com/upload/big/2014/02/08/52f5a3d45e8d2.jpg&quot; rel=&quot;nofollow&quot; target=&quot;_NEW&quot;&gt;\nhttp://istoreimg.com/upload/big/2014/02/08/52f5a3d45e8d2.jpg&lt;/a&gt;\n\nFormat                                   : Matroska\nFormat version                           : Version 4 / Version 2\nFile size                                : 695 MiB\nDuration                                 : 1h 30mn\nOverall bit rate                         : 1 076 Kbps\nMovie name                               : The Art Of The Steal 2013 English Movies DVDRip XViD ESubs ~ rDX ~\n\nVideo\nID                                       : 1\nFormat                                   : MPEG-4 Visual\nFormat profile                           : Advanced Simple@L5\nFormat settings, BVOP                    : Yes\nFormat settings, QPel                    : No\nFormat settings, GMC                     : No warppoints\nFormat settings, Matrix                  : Default (H.263)\nCodec ID                                 : V_MS/VFW/FOURCC / XVID\nCodec ID/Hint                            : XviD\nDuration                                 : 1h 30mn\nBit rate                                 : 927 Kbps\nWidth                                    : 640 pixels\nHeight                                   : 272 pixels\nDisplay aspect ratio                     : 2.35:1\nFrame rate mode                          : Constant\nFrame rate                               : 23.976 fps\nColor space                              : YUV\nChroma subsampling                       : 4:2:0\nBit depth                                : 8 bits\nScan type                                : Progressive\nCompression mode                         : Lossy\nBits/(Pixel*Frame)                       : 0.222\nStream size                              : 598 MiB (86%)\nWriting library                          : XviD 64\nDefault                                  : Yes\nForced                                   : No\n\nAudio\nID                                       : 2\nFormat                                   : MPEG Audio\nFormat version                           : Version 1\nFormat profile                           : Layer 3\nCodec ID                                 : A_MPEG/L3\nCodec ID/Hint                            : MP3\nDuration                                 : 1h 30mn\nBit rate mode                            : Constant\nBit rate                                 : 128 Kbps\nChannel(s)                               : 2 channels\nSampling rate                            : 48.0 KHz\nCompression mode                         : Lossy\nStream size                              : 82.6 MiB (12%)\nWriting library                          : LAME3.99r\nEncoding settings                        : -m s -V 4 -q 3 -lowpass 17 -b 128\nDefault                                  : Yes\nForced                                   : No","torrent":{"xt":"urn:btih:69a3a3d963f1ebdc54114c868756ce3339bd55d2","amp;dn":"The+Art+Of+The+Steal+2013+English+Movies+DVDRip+XViD+ESubs+%2BSamp","amp;tr":["udp%3A%2F%2Ftracker.openbittorrent.com%3A80","udp%3A%2F%2Fopen.demonii.com%3A1337","udp%3A%2F%2Ftracker.coppersurfer.tk%3A6969","udp%3A%2F%2Fexodus.desync.com%3A6969"],"infoHash":"69a3a3d963f1ebdc54114c868756ce3339bd55d2","infoHashBuffer":{"type":"Buffer","data":[105,163,163,217,99,241,235,220,84,17,76,134,135,86,206,51,57,189,85,210]},"announce":[],"urlList":[]}}